name C:/MyDriveSym/Projects/mobilecap/Data\Session20210903_0002\mocap\ForceDataProcessed\walkingTS2_forces.mot
datacolumns 19
datarows 14
range 1.12450000 1.13100000
endheader 
time	R_ground_force_vx	R_ground_force_vy	R_ground_force_vz	R_ground_force_px	R_ground_force_py	R_ground_force_pz	R_ground_torque_x	R_ground_torque_y	R_ground_torque_z	L_ground_force_vx	L_ground_force_vy	L_ground_force_vz	L_ground_force_px	L_ground_force_py	L_ground_force_pz	L_ground_torque_x	L_ground_torque_y	L_ground_torque_z	
          1.12450000	          0.00000000	          0.00000000	          0.00000000	          1.18869200	          0.00000000	         -0.13966400	          0.00000000	          0.00000000	          0.00000000	         32.39347400	        547.40333400	         49.98660100	          0.94465800	          0.00600000	         -0.37377800	          0.00000000	          2.48648400	          0.00000000	
          1.12500000	          0.00000000	          0.00000000	          0.00000000	          1.18998500	          0.00000000	         -0.13968500	          0.00000000	          0.00000000	          0.00000000	         32.63325900	        547.72587700	         50.00557200	          0.94477900	          0.00600000	         -0.37374000	          0.00000000	          2.48694900	          0.00000000	
          1.12550000	          0.00000000	          0.00000000	          0.00000000	          1.19127800	          0.00000000	         -0.13970500	          0.00000000	          0.00000000	          0.00000000	         32.87332900	        548.04748600	         50.02433900	          0.94489900	          0.00600000	         -0.37370100	          0.00000000	          2.48738200	          0.00000000	
          1.12600000	          0.00000000	          0.00000000	          0.00000000	          1.19257100	          0.00000000	         -0.13972600	          0.00000000	          0.00000000	          0.00000000	         33.11368100	        548.36813300	         50.04289900	          0.94502000	          0.00600000	         -0.37366300	          0.00000000	          2.48778500	          0.00000000	
          1.12650000	          0.00000000	          0.00000000	          0.00000000	          1.19386400	          0.00000000	         -0.13974600	          0.00000000	          0.00000000	          0.00000000	         33.35431000	        548.68779000	         50.06124800	          0.94514100	          0.00600000	         -0.37362500	          0.00000000	          2.48815700	          0.00000000	
          1.12700000	          0.00000000	          0.00000000	          0.00000000	          1.19515700	          0.00000000	         -0.13976700	          0.00000000	          0.00000000	          0.00000000	         33.59521200	        549.00642600	         50.07938400	          0.94526200	          0.00600000	         -0.37358700	          0.00000000	          2.48849800	          0.00000000	
          1.12750000	          0.00000000	          0.00000000	          0.00000000	          1.19645000	          0.00000000	         -0.13978700	          0.00000000	          0.00000000	          0.00000000	         33.83638200	        549.32401200	         50.09730300	          0.94538300	          0.00600000	         -0.37354900	          0.00000000	          2.48880800	          0.00000000	
          1.12800000	          0.00000000	          0.00000000	          0.00000000	          1.19774300	          0.00000000	         -0.13980700	          0.00000000	          0.00000000	          0.00000000	         34.07781600	        549.64051800	         50.11500200	          0.94550300	          0.00600000	         -0.37351100	          0.00000000	          2.48908600	          0.00000000	
          1.12850000	          0.00000000	          0.00000000	          0.00000000	          1.19903600	          0.00000000	         -0.13982800	          0.00000000	          0.00000000	          0.00000000	         34.31951000	        549.95591400	         50.13247700	          0.94562400	          0.00600000	         -0.37347300	          0.00000000	          2.48933200	          0.00000000	
          1.12900000	          0.00000000	          0.00000000	          0.00000000	          1.20032900	          0.00000000	         -0.13984800	          0.00000000	          0.00000000	          0.00000000	         34.56145800	        550.27017000	         50.14972500	          0.94574400	          0.00600000	         -0.37343500	          0.00000000	          2.48954700	          0.00000000	
          1.12950000	          0.00000000	          0.00000000	          0.00000000	          1.20162200	          0.00000000	         -0.13986900	          0.00000000	          0.00000000	          0.00000000	         34.80365700	        550.58325400	         50.16674300	          0.94586500	          0.00600000	         -0.37339700	          0.00000000	          2.48973000	          0.00000000	
          1.13000000	          0.00000000	          0.00000000	          0.00000000	          1.20291500	          0.00000000	         -0.13988900	          0.00000000	          0.00000000	          0.00000000	         35.04610100	        550.89513600	         50.18352800	          0.94598500	          0.00600000	         -0.37335900	          0.00000000	          2.48988100	          0.00000000	
          1.13050000	          0.00000000	          0.00000000	          0.00000000	          1.20420800	          0.00000000	         -0.13991000	          0.00000000	          0.00000000	          0.00000000	         35.28878600	        551.20578400	         50.20007500	          0.94610500	          0.00600000	         -0.37332100	          0.00000000	          2.49000100	          0.00000000	
          1.13100000	          0.00000000	          0.00000000	          0.00000000	          1.20550100	          0.00000000	         -0.13993000	          0.00000000	          0.00000000	          0.00000000	         35.53170800	        551.51516600	         50.21638100	          0.94622500	          0.00600000	         -0.37328400	          0.00000000	          2.49008700	          0.00000000	
